<svg width="74" height="74" viewBox="0 0 74 74" fill="none" xmlns="http://www.w3.org/2000/svg">
<g clip-path="url(#clip0_303_2907)">
<path d="M73.1235 35.8551C72.9788 35.6542 69.4996 30.8751 63.3186 26.0594C55.0858 19.6458 45.9402 16.254 36.8702 16.254C27.8002 16.254 18.6892 19.6522 10.5334 26.0801C4.4107 30.907 0.991345 35.6972 0.848151 35.8998L0 37.0989L0.928403 38.2359C1.0952 38.44 5.08576 43.2924 11.4634 48.2007C20.0094 54.7753 28.7805 58.25 36.8308 58.25C44.8812 58.25 53.701 54.7721 62.3509 48.1911C68.8072 43.2797 72.8733 38.424 73.0433 38.2199L74 37.0702L73.1251 35.8567L73.1235 35.8551ZM36.8308 42.5398C33.808 42.5398 31.3485 40.0474 31.3485 36.9841C31.3485 33.9208 33.808 31.4284 36.8308 31.4284C39.8537 31.4284 42.3131 33.9208 42.3131 36.9841C42.3131 40.0474 39.8537 42.5398 36.8308 42.5398ZM34.9426 22.261V27.7975C31.3501 28.5549 28.513 31.43 27.7655 35.0706H22.3021C23.1518 28.4114 28.3714 23.1221 34.9426 22.261ZM27.7655 38.8977C28.513 42.5398 31.3485 45.4133 34.9426 46.1707V51.7072C28.3714 50.8462 23.1518 45.5568 22.3021 38.8977H27.7655ZM38.7191 46.1707C42.3131 45.4133 45.1487 42.5398 45.8961 38.8977H51.3596C50.5098 45.5568 45.2903 50.8462 38.7191 51.7072V46.1707ZM45.8961 35.0706C45.1487 31.43 42.3131 28.5549 38.7191 27.7975V22.261C45.2903 23.1221 50.5098 28.4114 51.3596 35.0706H45.8961ZM4.84186 36.9426C7.37057 33.8491 14.9599 25.5299 26.0346 21.8623C21.4146 25.2589 18.4044 30.7715 18.4044 36.9857C18.4044 43.1999 21.605 49.0554 26.4705 52.42C21.5122 50.5735 17.1235 47.7414 13.8159 45.2044C9.55783 41.937 6.37136 38.6329 4.84186 36.9442V36.9426ZM47.1298 52.4615C52.0299 49.1016 55.2573 43.4184 55.2573 36.9841C55.2573 30.5498 52.214 25.1967 47.55 21.8049C53.0559 23.5861 57.6208 26.4596 60.9268 29.0238C64.9205 32.1205 67.7451 35.2539 69.1219 36.9108C66.2486 40.0235 57.6869 48.5818 47.1298 52.4615Z" fill="#06164C"/>
<path d="M38.881 0H35.1045V9.55019H38.881V0Z" fill="#01C38E"/>
<path d="M22.7168 2.09267L19.3892 3.90234L23.8856 12.3933L27.2133 10.5836L22.7168 2.09267Z" fill="#01C38E"/>
<path d="M51.0081 2.09192L46.5103 10.582L49.8376 12.3923L54.3355 3.90218L51.0081 2.09192Z" fill="#01C38E"/>
<path d="M38.7189 64.4648H34.9424V73.9991H38.7189V64.4648Z" fill="#01C38E"/>
<path d="M23.878 61.6442L19.3735 70.1289L22.6993 71.9421L27.2038 63.4574L23.878 61.6442Z" fill="#01C38E"/>
<path d="M49.8471 61.6466L46.522 63.4609L51.0301 71.9455L54.3553 70.1311L49.8471 61.6466Z" fill="#01C38E"/>
</g>
<defs>
<clipPath id="clip0_303_2907">
<rect width="74" height="74" fill="white"/>
</clipPath>
</defs>
</svg>
