<svg width="74" height="74" viewBox="0 0 74 74" fill="none" xmlns="http://www.w3.org/2000/svg">
<g clip-path="url(#clip0_303_2915)">
<path d="M57.8621 24.1173C58.7889 23.1961 59.65 22.3373 60.5081 21.4846C70.3791 35.2715 68.2261 54.7507 54.809 66.1699C41.6711 77.3506 21.845 76.4746 9.52158 64.075C-2.53197 51.9497 -3.21687 31.928 7.89748 19.1045C19.6718 5.52029 39.0735 3.91637 52.5811 13.5336C51.7043 14.3785 50.8291 15.2217 49.8977 16.1164C42.4138 11.3016 34.2387 9.80675 25.4988 12.1589C18.7529 13.9748 13.3049 17.7733 9.24231 23.4751C0.769259 35.365 2.01424 51.1283 12.3704 61.6153C22.2335 71.6036 38.3512 73.4771 50.6231 64.7296C54.8339 61.7276 58.0306 57.8308 60.2148 53.1281C62.4115 48.3959 63.2664 43.4173 62.8374 38.2362C62.4115 33.0893 60.7702 28.3399 57.8606 24.1173H57.8621Z" fill="#06164C"/>
<path d="M45.91 20.2271C44.9911 21.1234 44.1221 21.9714 43.2048 22.8661C37.7474 20.0572 32.042 19.4758 26.165 21.6658C21.5767 23.3758 18.029 26.3669 15.6155 30.6316C10.8976 38.9676 12.3891 49.2754 19.6811 55.8142C27.1869 62.5447 38.1031 62.8206 45.9116 56.6948C53.6592 50.6143 56.015 39.6659 51.1583 30.8981C52.0444 30.0221 52.9244 29.1539 53.7918 28.2982C58.6765 35.2173 59.4785 48.1858 50.6481 57.4119C41.8038 66.6535 27.2181 67.3284 17.3862 58.7336C7.89282 50.4335 6.41694 36.285 14.2129 26.063C21.9293 15.9454 35.9517 13.9907 45.9116 20.2256L45.91 20.2271Z" fill="#06164C"/>
<path d="M61.1004 0H64.8104V9.22136H74.0011V12.9498C73.7296 12.9498 73.4379 12.9498 73.1461 12.9498C70.2318 12.9498 67.319 12.9327 64.4063 12.9701C64.0178 12.9747 63.5311 13.1556 63.2596 13.4268C55.1423 21.5103 47.0514 29.6187 38.9372 37.7038C38.4738 38.1651 38.3974 38.5377 38.594 39.1471C39.4895 41.9248 37.9169 44.9985 35.1835 45.9135C32.238 46.8986 29.1365 45.4475 28.1255 42.6106C27.0911 39.7067 28.5187 36.5768 31.3534 35.5262C32.5968 35.0649 33.8527 35.043 35.0946 35.4764C35.5439 35.6338 35.8216 35.6198 36.1789 35.2613C44.3477 27.0733 52.5337 18.9041 60.6994 10.7115C60.935 10.4746 61.0832 10.0428 61.0863 9.69988C61.116 6.76171 61.1035 3.82197 61.1035 0.883791V0H61.1004Z" fill="#01C38E"/>
<path d="M39.0878 27.0849C38.1252 28.0357 37.2625 28.9226 36.3514 29.7597C36.1985 29.9 35.8334 29.8844 35.5885 29.8345C29.3604 28.5657 23.4663 32.6043 22.3367 38.9265C21.2727 44.8886 25.5194 50.6995 31.6491 51.6674C39.2438 52.8676 45.7714 45.9859 44.2066 38.4542C44.138 38.1253 44.2799 37.6421 44.503 37.3865C45.2301 36.5541 46.0398 35.795 46.8323 34.9938C48.8277 38.5555 49.1678 46.3179 43.2284 51.6814C38.0659 56.342 30.1265 56.9156 24.251 52.3891C18.5441 47.992 16.792 39.7121 20.2945 33.63C24.1605 26.915 31.8863 24.1654 39.0878 27.0834V27.0849Z" fill="#160846"/>
</g>
<defs>
<clipPath id="clip0_303_2915">
<rect width="74" height="74" fill="white"/>
</clipPath>
</defs>
</svg>
